{"title":"Ant Man.2015.HDRiP.XViD.ReLeNTLesS","uid":12700944,"size":1703458278,"categoryP":"video","categoryS":"movies","magnet":"?xt=urn:btih:941475f9f5d838023ac6b855cca49d52da58f6a8&amp;dn=Ant+Man.2015.HDRiP.XViD.ReLeNTLesS&amp;tr=udp%3A%2F%2Ftracker.leechers-paradise.org%3A6969&amp;tr=udp%3A%2F%2Fzer0day.ch%3A1337&amp;tr=udp%3A%2F%2Fopen.demonii.com%3A1337&amp;tr=udp%3A%2F%2Ftracker.coppersurfer.tk%3A6969&amp;tr=udp%3A%2F%2Fexodus.desync.com%3A6969","seeders":0,"leechers":0,"uploader":"TvTeam","files":4,"time":1446774656,"description":"------------------------------------------------------------------------\r\n\r  https://www.torrenting.com\r\n\r\nSign up is OPEN - for time being. Come and have fun.\r\n\r\n------------------------------------------------------------------------P0STER\r\n[img]http://i.imgur.com/GenW9di.png[/img]\r\n\r\niMDB: http://www.imdb.com/title/tt0478970/\r\n\r\nGeneral\r\nComplete name               : Ant Man.2015.HDRiP.XViD.ReLeNTLesS.avi\r\nFormat                      : AVI\r\nFormat/Info                 : Audio Video Interleave\r\nFile size                   : 1.56 GiB\r\nDuration                    : 1h 57mn\r\nOverall bit rate            : 1 913 Kbps\r\nWriting library             : VirtualDub build 35491/release\r\n\r\nVideo\r\nID                          : 0\r\nFormat                      : MPEG-4 Visual\r\nFormat profile              : Advanced   \r\nFormat settings, BVOP       : 1\r\nFormat settings, QPel       : No\r\nFormat settings, GMC        : No warppoints\r\nFormat settings, Matrix     : Default (H.263)\r\nMuxing mode                 : Packed bitstream\r\nCodec ID                    : XVID\r\nCodec ID/Hint               : XviD\r\nDuration                    : 1h 57mn\r\nBit rate                    : 1 711 Kbps\r\nWidth                       : 720 pixels\r\nHeight                      : 384 pixels\r\nDisplay aspect ratio        : 1.85:1\r\nFrame rate                  : 23.976 fps\r\nColor space                 : YUV\r\nChroma subsampling          : 4:2:0\r\nBit depth                   : 8 bits\r\nScan type                   : Progressive\r\nCompression mode            : Lossy\r\nBits/(Pixel*Frame)          : 0.258\r\nStream size                 : 1.40 GiB (89%)\r\nWriting library             : XviD 1.2.1 (UTC 2008-12-04)\r\n\r\nAudio\r\nID                          : 1\r\nFormat                      : AC-3\r\nFormat/Info                 : Audio Coding 3\r\nMode extension              : CM (complete main)\r\nFormat settings, Endianness : Big\r\nCodec ID                    : 2000\r\nDuration                    : 1h 57mn\r\nBit rate mode               : Constant\r\nBit rate                    : 192 Kbps\r\nChannel(s)                  : 2 channels\r\nChannel positions           : Front: L R\r\nSampling rate               : 48.0 KHz\r\nCompression mode            : Lossy\r\nDelay relative to video     : 500ms\r\nStream size                 : 161 MiB (10%)\r\nAlignment                   : Split accross interleaves\r\nInterleave, duration        : 42 ms (1.00 video frame)\r\nInterleave, preload duratio : 500 ms\r\nSample Included             : Yes\r\nSource                      : 9gig 1080p passed from a friend cheers brother :bow: \r\n\r\nPL0T\r\nArmed with a super-suit with the astonishing ability to shrink in scale but increase in strength, cat burglar Scott Lang must embrace his inner hero and help his mentor, Dr. Hank Pym, plan and pull off a heist that will save the world.\r\n\r\nCAST\r\nDirector: Peyton Reed\r\nWriters: Edgar Wright (screenplay), Joe Cornish (screenplay)\r\nStars: Paul Rudd, Michael Douglas, Corey Stoll\r\n\r\nN0TE\r\nGot passed 9 gig source so took my time to get a nice print, Resized, degrained, brightened and sharpened just a tad, had to re-sync audio as it was skipping for 500ms @ the begining, so synced and muxed audio.\r\n\r\nSCREENS\r\n[img]http://i.imgur.com/s1nLcH2.png[/img]\r\n[img]http://i.imgur.com/xNp1K6o.png[/img]\r\n[img]http://i.imgur.com/R7VCdZw.png[/img]\r\n[img]http://i.imgur.com/1vLIMXS.png[/img]\r\n[img]http://i.imgur.com/HxXb0mi.png[/img]\r\n[img]http://i.imgur.com/7B8uM8J.png[/img]\r\n[img]http://i.imgur.com/SZwg7mA.png[/img]\r\n[img]http://i.imgur.com/jFB4ygV.png[/img]\r\n\r\nTRAiLER\r\n\r\nGREETZ\r\n\r\nHIVE-CM8, Blackjesus, M0RPH, M00SE, MiLLENiUM,\r\n\r\nMANiX, TiTAN, Anonymous, TuX, \r\n\r\nACAB, KingStoner, FooKas, 4PlayHD, \r\n\r\nSoZE, GodFather, Cld.... \r\n\r\nKeep up the good work guyz","torrent":{"xt":"urn:btih:941475f9f5d838023ac6b855cca49d52da58f6a8","amp;dn":"Ant+Man.2015.HDRiP.XViD.ReLeNTLesS","amp;tr":["udp%3A%2F%2Ftracker.leechers-paradise.org%3A6969","udp%3A%2F%2Fzer0day.ch%3A1337","udp%3A%2F%2Fopen.demonii.com%3A1337","udp%3A%2F%2Ftracker.coppersurfer.tk%3A6969","udp%3A%2F%2Fexodus.desync.com%3A6969"],"infoHash":"941475f9f5d838023ac6b855cca49d52da58f6a8","infoHashBuffer":{"type":"Buffer","data":[148,20,117,249,245,216,56,2,58,198,184,85,204,164,157,82,218,88,246,168]},"announce":[],"urlList":[]}}